<mxfile host="65bd71144e">
    <diagram id="FFG0CNB_foNnVQ6EdjLb" name="Page-1">
        <mxGraphModel dx="2216" dy="1171" grid="1" gridSize="10" guides="1" tooltips="1" connect="1" arrows="1" fold="1" page="1" pageScale="1" pageWidth="827" pageHeight="1169" math="0" shadow="0">
            <root>
                <mxCell id="0"/>
                <mxCell id="1" parent="0"/>
                <mxCell id="YQ1TIbrVVNOytPRjxOW0-62" value="&lt;font color=&quot;#000000&quot;&gt;&lt;br&gt;&lt;br&gt;&lt;br&gt;&lt;br&gt;&lt;br&gt;&lt;br&gt;&lt;br&gt;&lt;br&gt;&lt;br&gt;&lt;br&gt;&lt;br&gt;&lt;div style=&quot;text-align: right;&quot;&gt;&lt;span style=&quot;background-color: initial;&quot;&gt;&lt;br&gt;&lt;/span&gt;&lt;/div&gt;&lt;div style=&quot;text-align: right;&quot;&gt;&lt;span style=&quot;background-color: initial;&quot;&gt;&lt;br&gt;&lt;/span&gt;&lt;/div&gt;&lt;div style=&quot;text-align: right;&quot;&gt;&lt;span style=&quot;background-color: initial;&quot;&gt;&lt;br&gt;&lt;/span&gt;&lt;/div&gt;&lt;div style=&quot;text-align: right;&quot;&gt;&lt;span style=&quot;background-color: initial;&quot;&gt;Data plane&lt;span style=&quot;white-space: pre;&quot;&gt;&#9;&lt;/span&gt;&lt;span style=&quot;white-space: pre;&quot;&gt;&#9;&lt;/span&gt;&lt;/span&gt;&lt;/div&gt;&lt;/font&gt;" style="rounded=1;whiteSpace=wrap;html=1;labelBackgroundColor=none;strokeColor=#000000;fontSize=18;fontColor=#B3B3B3;fillColor=none;dashed=1;" parent="1" vertex="1">
                    <mxGeometry x="337.5" y="1100" width="200" height="332.5" as="geometry"/>
                </mxCell>
                <mxCell id="YQ1TIbrVVNOytPRjxOW0-36" value="&lt;font color=&quot;#000000&quot;&gt;&lt;br&gt;&lt;br&gt;&lt;br&gt;&lt;br&gt;&lt;br&gt;&lt;br&gt;&lt;br&gt;&lt;br&gt;&lt;br&gt;&lt;br&gt;&lt;br&gt;&lt;div style=&quot;text-align: right;&quot;&gt;&lt;span style=&quot;background-color: initial;&quot;&gt;&lt;br&gt;&lt;/span&gt;&lt;/div&gt;&lt;div style=&quot;text-align: right;&quot;&gt;&lt;span style=&quot;background-color: initial;&quot;&gt;&lt;br&gt;&lt;/span&gt;&lt;/div&gt;&lt;div style=&quot;text-align: right;&quot;&gt;&lt;span style=&quot;background-color: initial;&quot;&gt;&lt;br&gt;&lt;/span&gt;&lt;/div&gt;&lt;div style=&quot;text-align: right;&quot;&gt;&lt;span style=&quot;background-color: initial;&quot;&gt;Data plane&lt;span style=&quot;white-space: pre;&quot;&gt;&#9;&lt;/span&gt;&lt;span style=&quot;white-space: pre;&quot;&gt;&#9;&lt;/span&gt;&lt;/span&gt;&lt;/div&gt;&lt;/font&gt;" style="rounded=1;whiteSpace=wrap;html=1;labelBackgroundColor=none;strokeColor=#000000;fontSize=18;fontColor=#B3B3B3;fillColor=none;dashed=1;" parent="1" vertex="1">
                    <mxGeometry x="337.5" y="610" width="200" height="332.5" as="geometry"/>
                </mxCell>
                <mxCell id="YQ1TIbrVVNOytPRjxOW0-124" value="&lt;font color=&quot;#000000&quot;&gt;&lt;br&gt;&lt;/font&gt;" style="rounded=1;whiteSpace=wrap;html=1;labelBackgroundColor=none;strokeColor=#000000;fontSize=18;fontColor=#B3B3B3;fillColor=#E6E6E6;dashed=1;" parent="1" vertex="1">
                    <mxGeometry x="108.5" y="1782.5" width="604" height="110" as="geometry"/>
                </mxCell>
                <mxCell id="YQ1TIbrVVNOytPRjxOW0-123" value="&lt;font color=&quot;#000000&quot;&gt;&lt;br&gt;&lt;/font&gt;" style="rounded=1;whiteSpace=wrap;html=1;labelBackgroundColor=none;strokeColor=#000000;fontSize=18;fontColor=#B3B3B3;fillColor=#E6E6E6;dashed=1;" parent="1" vertex="1">
                    <mxGeometry x="108.5" y="1627.5" width="604" height="110" as="geometry"/>
                </mxCell>
                <mxCell id="YQ1TIbrVVNOytPRjxOW0-64" value="&lt;font color=&quot;#000000&quot;&gt;&lt;br&gt;&lt;br&gt;&lt;br&gt;&lt;br&gt;&lt;br&gt;&lt;br&gt;&lt;br&gt;&lt;br&gt;&lt;br&gt;&lt;br&gt;&lt;br&gt;&lt;div style=&quot;text-align: right;&quot;&gt;&lt;span style=&quot;background-color: initial;&quot;&gt;&lt;br&gt;&lt;/span&gt;&lt;/div&gt;&lt;div style=&quot;text-align: right;&quot;&gt;&lt;span style=&quot;background-color: initial;&quot;&gt;&lt;br&gt;&lt;/span&gt;&lt;/div&gt;&lt;div style=&quot;text-align: right;&quot;&gt;&lt;span style=&quot;background-color: initial;&quot;&gt;&lt;br&gt;&lt;/span&gt;&lt;/div&gt;&lt;div style=&quot;text-align: right;&quot;&gt;&lt;span style=&quot;background-color: initial;&quot;&gt;Control plane&lt;/span&gt;&lt;/div&gt;&lt;/font&gt;" style="rounded=1;whiteSpace=wrap;html=1;labelBackgroundColor=none;strokeColor=#000000;fontSize=18;fontColor=#B3B3B3;fillColor=none;dashed=1;" parent="1" vertex="1">
                    <mxGeometry x="669.5" y="1100" width="200" height="340" as="geometry"/>
                </mxCell>
                <mxCell id="YQ1TIbrVVNOytPRjxOW0-5" value="&lt;b&gt;&lt;font style=&quot;font-size: 18px;&quot;&gt;Microservices&lt;/font&gt;&lt;/b&gt;" style="text;html=1;strokeColor=none;fillColor=none;align=center;verticalAlign=middle;whiteSpace=wrap;rounded=0;" parent="1" vertex="1">
                    <mxGeometry x="40" y="40" width="140" height="70" as="geometry"/>
                </mxCell>
                <mxCell id="YQ1TIbrVVNOytPRjxOW0-6" value="&lt;b&gt;&lt;font style=&quot;font-size: 18px;&quot;&gt;Microservices + Service Mesh&lt;/font&gt;&lt;/b&gt;" style="text;html=1;strokeColor=none;fillColor=none;align=center;verticalAlign=middle;whiteSpace=wrap;rounded=0;" parent="1" vertex="1">
                    <mxGeometry x="40" y="470" width="140" height="70" as="geometry"/>
                </mxCell>
                <mxCell id="YQ1TIbrVVNOytPRjxOW0-7" value="&lt;b&gt;&lt;font style=&quot;font-size: 18px;&quot;&gt;Microservices + Istio&lt;/font&gt;&lt;/b&gt;" style="text;html=1;strokeColor=none;fillColor=none;align=center;verticalAlign=middle;whiteSpace=wrap;rounded=0;" parent="1" vertex="1">
                    <mxGeometry x="40" y="1000" width="140" height="70" as="geometry"/>
                </mxCell>
                <mxCell id="YQ1TIbrVVNOytPRjxOW0-8" value="&lt;b&gt;&lt;font style=&quot;font-size: 18px;&quot;&gt;Microservices + Linkerd&lt;/font&gt;&lt;/b&gt;" style="text;html=1;strokeColor=none;fillColor=none;align=center;verticalAlign=middle;whiteSpace=wrap;rounded=0;" parent="1" vertex="1">
                    <mxGeometry x="40" y="1510" width="140" height="70" as="geometry"/>
                </mxCell>
                <UserObject label="https://servicemesh.es/" link="https://servicemesh.es/" id="YQ1TIbrVVNOytPRjxOW0-9">
                    <mxCell style="text;whiteSpace=wrap;html=1;fontSize=18;" parent="1" vertex="1">
                        <mxGeometry x="241.5" y="60" width="220" height="50" as="geometry"/>
                    </mxCell>
                </UserObject>
                <UserObject label="https://istio.io/latest/docs/ops/deployment/architecture/" link="https://istio.io/latest/docs/ops/deployment/architecture/" id="YQ1TIbrVVNOytPRjxOW0-10">
                    <mxCell style="text;whiteSpace=wrap;html=1;fontSize=18;" parent="1" vertex="1">
                        <mxGeometry x="220" y="1010" width="470" height="50" as="geometry"/>
                    </mxCell>
                </UserObject>
                <mxCell id="YQ1TIbrVVNOytPRjxOW0-25" style="edgeStyle=orthogonalEdgeStyle;rounded=0;orthogonalLoop=1;jettySize=auto;html=1;entryX=0.5;entryY=0;entryDx=0;entryDy=0;fontSize=18;fontColor=#FFFFFF;" parent="1" source="YQ1TIbrVVNOytPRjxOW0-22" target="YQ1TIbrVVNOytPRjxOW0-24" edge="1">
                    <mxGeometry relative="1" as="geometry"/>
                </mxCell>
                <mxCell id="YQ1TIbrVVNOytPRjxOW0-22" value="&lt;font color=&quot;#ffffff&quot;&gt;Microservice A&lt;/font&gt;" style="rounded=1;whiteSpace=wrap;html=1;fontSize=18;fillColor=#1061B0;" parent="1" vertex="1">
                    <mxGeometry x="119.5" y="140" width="156" height="85" as="geometry"/>
                </mxCell>
                <mxCell id="YQ1TIbrVVNOytPRjxOW0-24" value="&lt;font color=&quot;#ffffff&quot;&gt;Microservice B&lt;/font&gt;" style="rounded=1;whiteSpace=wrap;html=1;fontSize=18;fillColor=#1061B0;" parent="1" vertex="1">
                    <mxGeometry x="119.5" y="295" width="156" height="85" as="geometry"/>
                </mxCell>
                <mxCell id="YQ1TIbrVVNOytPRjxOW0-26" value="&lt;b&gt;&lt;font style=&quot;font-size: 18px;&quot;&gt;Microservices + Consul&lt;/font&gt;&lt;/b&gt;" style="text;html=1;strokeColor=none;fillColor=none;align=center;verticalAlign=middle;whiteSpace=wrap;rounded=0;" parent="1" vertex="1">
                    <mxGeometry x="40" y="2000" width="140" height="70" as="geometry"/>
                </mxCell>
                <UserObject label="https://linkerd.io/2.12/reference/architecture/" link="https://linkerd.io/2.12/reference/architecture/" id="YQ1TIbrVVNOytPRjxOW0-27">
                    <mxCell style="text;whiteSpace=wrap;html=1;fontSize=18;fontColor=#000000;" parent="1" vertex="1">
                        <mxGeometry x="210" y="1520" width="380" height="50" as="geometry"/>
                    </mxCell>
                </UserObject>
                <UserObject label="https://developer.hashicorp.com/consul/docs/architecture" link="https://developer.hashicorp.com/consul/docs/architecture" id="YQ1TIbrVVNOytPRjxOW0-28">
                    <mxCell style="text;whiteSpace=wrap;html=1;fontSize=18;fontColor=#000000;" parent="1" vertex="1">
                        <mxGeometry x="232" y="2020" width="490" height="50" as="geometry"/>
                    </mxCell>
                </UserObject>
                <mxCell id="YQ1TIbrVVNOytPRjxOW0-37" style="edgeStyle=orthogonalEdgeStyle;rounded=0;orthogonalLoop=1;jettySize=auto;html=1;exitX=1;exitY=0.5;exitDx=0;exitDy=0;entryX=0;entryY=0.5;entryDx=0;entryDy=0;fontSize=18;fontColor=#B3B3B3;" parent="1" source="YQ1TIbrVVNOytPRjxOW0-30" target="YQ1TIbrVVNOytPRjxOW0-32" edge="1">
                    <mxGeometry relative="1" as="geometry"/>
                </mxCell>
                <mxCell id="YQ1TIbrVVNOytPRjxOW0-30" value="&lt;font color=&quot;#ffffff&quot;&gt;Microservice A&lt;/font&gt;" style="rounded=1;whiteSpace=wrap;html=1;fontSize=18;fillColor=#1061B0;" parent="1" vertex="1">
                    <mxGeometry x="119.5" y="650" width="156" height="85" as="geometry"/>
                </mxCell>
                <mxCell id="YQ1TIbrVVNOytPRjxOW0-31" value="&lt;font color=&quot;#ffffff&quot;&gt;Microservice B&lt;/font&gt;" style="rounded=1;whiteSpace=wrap;html=1;fontSize=18;fillColor=#1061B0;" parent="1" vertex="1">
                    <mxGeometry x="119.5" y="805" width="156" height="85" as="geometry"/>
                </mxCell>
                <mxCell id="YQ1TIbrVVNOytPRjxOW0-38" style="edgeStyle=orthogonalEdgeStyle;rounded=0;orthogonalLoop=1;jettySize=auto;html=1;exitX=0.5;exitY=1;exitDx=0;exitDy=0;entryX=0.5;entryY=0;entryDx=0;entryDy=0;fontSize=18;fontColor=#B3B3B3;startArrow=classic;startFill=1;" parent="1" source="YQ1TIbrVVNOytPRjxOW0-32" target="YQ1TIbrVVNOytPRjxOW0-34" edge="1">
                    <mxGeometry relative="1" as="geometry"/>
                </mxCell>
                <mxCell id="YQ1TIbrVVNOytPRjxOW0-40" style="edgeStyle=orthogonalEdgeStyle;rounded=0;orthogonalLoop=1;jettySize=auto;html=1;exitX=1;exitY=0.5;exitDx=0;exitDy=0;entryX=0.5;entryY=0;entryDx=0;entryDy=0;fontSize=18;fontColor=#B3B3B3;" parent="1" source="YQ1TIbrVVNOytPRjxOW0-32" target="YQ1TIbrVVNOytPRjxOW0-35" edge="1">
                    <mxGeometry relative="1" as="geometry"/>
                </mxCell>
                <mxCell id="YQ1TIbrVVNOytPRjxOW0-32" value="&lt;font color=&quot;#ffffff&quot;&gt;Proxy&lt;/font&gt;" style="rounded=1;whiteSpace=wrap;html=1;fontSize=18;fillColor=#B3B3B3;" parent="1" vertex="1">
                    <mxGeometry x="359.5" y="650" width="156" height="85" as="geometry"/>
                </mxCell>
                <mxCell id="YQ1TIbrVVNOytPRjxOW0-39" style="edgeStyle=orthogonalEdgeStyle;rounded=0;orthogonalLoop=1;jettySize=auto;html=1;exitX=0;exitY=0.5;exitDx=0;exitDy=0;entryX=1;entryY=0.5;entryDx=0;entryDy=0;fontSize=18;fontColor=#B3B3B3;" parent="1" source="YQ1TIbrVVNOytPRjxOW0-34" target="YQ1TIbrVVNOytPRjxOW0-31" edge="1">
                    <mxGeometry relative="1" as="geometry"/>
                </mxCell>
                <mxCell id="YQ1TIbrVVNOytPRjxOW0-41" style="edgeStyle=orthogonalEdgeStyle;rounded=0;orthogonalLoop=1;jettySize=auto;html=1;exitX=1;exitY=0.5;exitDx=0;exitDy=0;entryX=0.5;entryY=1;entryDx=0;entryDy=0;fontSize=18;fontColor=#B3B3B3;" parent="1" source="YQ1TIbrVVNOytPRjxOW0-34" target="YQ1TIbrVVNOytPRjxOW0-35" edge="1">
                    <mxGeometry relative="1" as="geometry"/>
                </mxCell>
                <mxCell id="YQ1TIbrVVNOytPRjxOW0-34" value="&lt;font color=&quot;#ffffff&quot;&gt;Proxy&lt;/font&gt;" style="rounded=1;whiteSpace=wrap;html=1;fontSize=18;fillColor=#B3B3B3;" parent="1" vertex="1">
                    <mxGeometry x="359.5" y="805" width="156" height="85" as="geometry"/>
                </mxCell>
                <mxCell id="YQ1TIbrVVNOytPRjxOW0-35" value="&lt;font color=&quot;#ffffff&quot;&gt;Control plane&lt;/font&gt;" style="rounded=1;whiteSpace=wrap;html=1;fontSize=18;fillColor=#B3B3B3;" parent="1" vertex="1">
                    <mxGeometry x="679.5" y="720" width="156" height="85" as="geometry"/>
                </mxCell>
                <mxCell id="YQ1TIbrVVNOytPRjxOW0-53" style="edgeStyle=orthogonalEdgeStyle;rounded=0;orthogonalLoop=1;jettySize=auto;html=1;exitX=1;exitY=0.5;exitDx=0;exitDy=0;entryX=0;entryY=0.5;entryDx=0;entryDy=0;fontSize=18;fontColor=#B3B3B3;" parent="1" source="YQ1TIbrVVNOytPRjxOW0-54" target="YQ1TIbrVVNOytPRjxOW0-58" edge="1">
                    <mxGeometry relative="1" as="geometry"/>
                </mxCell>
                <mxCell id="YQ1TIbrVVNOytPRjxOW0-54" value="&lt;font color=&quot;#ffffff&quot;&gt;Microservice A&lt;/font&gt;" style="rounded=1;whiteSpace=wrap;html=1;fontSize=18;fillColor=#1061B0;" parent="1" vertex="1">
                    <mxGeometry x="119.5" y="1140" width="156" height="85" as="geometry"/>
                </mxCell>
                <mxCell id="YQ1TIbrVVNOytPRjxOW0-55" value="&lt;font color=&quot;#ffffff&quot;&gt;Microservice B&lt;/font&gt;" style="rounded=1;whiteSpace=wrap;html=1;fontSize=18;fillColor=#1061B0;" parent="1" vertex="1">
                    <mxGeometry x="119.5" y="1295" width="156" height="85" as="geometry"/>
                </mxCell>
                <mxCell id="YQ1TIbrVVNOytPRjxOW0-56" style="edgeStyle=orthogonalEdgeStyle;rounded=0;orthogonalLoop=1;jettySize=auto;html=1;exitX=0.5;exitY=1;exitDx=0;exitDy=0;entryX=0.5;entryY=0;entryDx=0;entryDy=0;fontSize=18;fontColor=#B3B3B3;startArrow=classic;startFill=1;" parent="1" source="YQ1TIbrVVNOytPRjxOW0-58" target="YQ1TIbrVVNOytPRjxOW0-61" edge="1">
                    <mxGeometry relative="1" as="geometry"/>
                </mxCell>
                <mxCell id="YQ1TIbrVVNOytPRjxOW0-68" style="edgeStyle=orthogonalEdgeStyle;rounded=0;orthogonalLoop=1;jettySize=auto;html=1;exitX=1;exitY=0.5;exitDx=0;exitDy=0;entryX=0;entryY=0.5;entryDx=0;entryDy=0;fontSize=18;fontColor=#000000;" parent="1" source="YQ1TIbrVVNOytPRjxOW0-58" target="YQ1TIbrVVNOytPRjxOW0-64" edge="1">
                    <mxGeometry relative="1" as="geometry"/>
                </mxCell>
                <mxCell id="YQ1TIbrVVNOytPRjxOW0-58" value="&lt;font color=&quot;#ffffff&quot;&gt;Envoy proxy&lt;/font&gt;" style="rounded=1;whiteSpace=wrap;html=1;fontSize=18;fillColor=#B3B3B3;" parent="1" vertex="1">
                    <mxGeometry x="359.5" y="1140" width="156" height="85" as="geometry"/>
                </mxCell>
                <mxCell id="YQ1TIbrVVNOytPRjxOW0-59" style="edgeStyle=orthogonalEdgeStyle;rounded=0;orthogonalLoop=1;jettySize=auto;html=1;exitX=0;exitY=0.5;exitDx=0;exitDy=0;entryX=1;entryY=0.5;entryDx=0;entryDy=0;fontSize=18;fontColor=#B3B3B3;" parent="1" source="YQ1TIbrVVNOytPRjxOW0-61" target="YQ1TIbrVVNOytPRjxOW0-55" edge="1">
                    <mxGeometry relative="1" as="geometry"/>
                </mxCell>
                <mxCell id="YQ1TIbrVVNOytPRjxOW0-69" style="edgeStyle=orthogonalEdgeStyle;rounded=0;orthogonalLoop=1;jettySize=auto;html=1;exitX=1;exitY=0.5;exitDx=0;exitDy=0;entryX=0;entryY=0.5;entryDx=0;entryDy=0;fontSize=18;fontColor=#000000;" parent="1" source="YQ1TIbrVVNOytPRjxOW0-61" target="YQ1TIbrVVNOytPRjxOW0-64" edge="1">
                    <mxGeometry relative="1" as="geometry"/>
                </mxCell>
                <mxCell id="YQ1TIbrVVNOytPRjxOW0-61" value="&lt;font color=&quot;#ffffff&quot;&gt;Envoy proxy&lt;/font&gt;" style="rounded=1;whiteSpace=wrap;html=1;fontSize=18;fillColor=#B3B3B3;" parent="1" vertex="1">
                    <mxGeometry x="359.5" y="1295" width="156" height="85" as="geometry"/>
                </mxCell>
                <mxCell id="YQ1TIbrVVNOytPRjxOW0-66" value="&lt;font color=&quot;#ffffff&quot;&gt;istiod&lt;/font&gt;" style="rounded=1;whiteSpace=wrap;html=1;fontSize=18;fillColor=#B3B3B3;" parent="1" vertex="1">
                    <mxGeometry x="691.5" y="1220" width="156" height="85" as="geometry"/>
                </mxCell>
                <mxCell id="YQ1TIbrVVNOytPRjxOW0-84" value="&lt;font color=&quot;#000000&quot;&gt;&lt;br&gt;&lt;br&gt;&lt;br&gt;&lt;br&gt;&lt;br&gt;&lt;br&gt;&lt;br&gt;&lt;br&gt;&lt;br&gt;&lt;br&gt;&lt;br&gt;&lt;div style=&quot;text-align: right;&quot;&gt;&lt;span style=&quot;background-color: initial;&quot;&gt;&lt;br&gt;&lt;/span&gt;&lt;/div&gt;&lt;div style=&quot;text-align: right;&quot;&gt;&lt;span style=&quot;background-color: initial;&quot;&gt;&lt;br&gt;&lt;/span&gt;&lt;/div&gt;&lt;div style=&quot;text-align: right;&quot;&gt;&lt;span style=&quot;background-color: initial;&quot;&gt;&lt;br&gt;&lt;/span&gt;&lt;/div&gt;&lt;div style=&quot;text-align: right;&quot;&gt;&lt;span style=&quot;background-color: initial;&quot;&gt;Control plane&lt;/span&gt;&lt;/div&gt;&lt;/font&gt;" style="rounded=1;whiteSpace=wrap;html=1;labelBackgroundColor=none;strokeColor=#000000;fontSize=18;fontColor=#B3B3B3;fillColor=none;dashed=1;" parent="1" vertex="1">
                    <mxGeometry x="855.5" y="1600" width="200" height="340" as="geometry"/>
                </mxCell>
                <mxCell id="YQ1TIbrVVNOytPRjxOW0-85" value="&lt;span style=&quot;text-align: right; color: rgb(0, 0, 0); background-color: initial;&quot;&gt;&lt;br&gt;&lt;br&gt;&lt;br&gt;&lt;br&gt;&lt;br&gt;&lt;br&gt;&lt;br&gt;&lt;br&gt;&lt;br&gt;&lt;br&gt;&lt;br&gt;&lt;br&gt;&lt;br&gt;&lt;br&gt;Data plane&lt;/span&gt;&lt;font color=&quot;#000000&quot;&gt;&lt;br&gt;&lt;/font&gt;" style="rounded=1;whiteSpace=wrap;html=1;labelBackgroundColor=none;strokeColor=#000000;fontSize=18;fontColor=#B3B3B3;fillColor=none;dashed=1;" parent="1" vertex="1">
                    <mxGeometry x="525.5" y="1600" width="198" height="332.5" as="geometry"/>
                </mxCell>
                <mxCell id="YQ1TIbrVVNOytPRjxOW0-86" style="edgeStyle=orthogonalEdgeStyle;rounded=0;orthogonalLoop=1;jettySize=auto;html=1;exitX=1;exitY=0.5;exitDx=0;exitDy=0;entryX=0;entryY=0.5;entryDx=0;entryDy=0;fontSize=18;fontColor=#B3B3B3;" parent="1" source="YQ1TIbrVVNOytPRjxOW0-87" target="YQ1TIbrVVNOytPRjxOW0-91" edge="1">
                    <mxGeometry relative="1" as="geometry"/>
                </mxCell>
                <mxCell id="YQ1TIbrVVNOytPRjxOW0-87" value="&lt;font color=&quot;#ffffff&quot;&gt;Microservice A&lt;/font&gt;" style="rounded=1;whiteSpace=wrap;html=1;fontSize=18;fillColor=#1061B0;" parent="1" vertex="1">
                    <mxGeometry x="305.5" y="1640" width="156" height="85" as="geometry"/>
                </mxCell>
                <mxCell id="YQ1TIbrVVNOytPRjxOW0-88" value="&lt;font color=&quot;#ffffff&quot;&gt;Microservice B&lt;/font&gt;" style="rounded=1;whiteSpace=wrap;html=1;fontSize=18;fillColor=#1061B0;" parent="1" vertex="1">
                    <mxGeometry x="305.5" y="1795" width="156" height="85" as="geometry"/>
                </mxCell>
                <mxCell id="YQ1TIbrVVNOytPRjxOW0-89" style="edgeStyle=orthogonalEdgeStyle;rounded=0;orthogonalLoop=1;jettySize=auto;html=1;exitX=0.5;exitY=1;exitDx=0;exitDy=0;entryX=0.5;entryY=0;entryDx=0;entryDy=0;fontSize=18;fontColor=#B3B3B3;startArrow=classic;startFill=1;" parent="1" source="YQ1TIbrVVNOytPRjxOW0-91" target="YQ1TIbrVVNOytPRjxOW0-94" edge="1">
                    <mxGeometry relative="1" as="geometry"/>
                </mxCell>
                <mxCell id="YQ1TIbrVVNOytPRjxOW0-90" style="edgeStyle=orthogonalEdgeStyle;rounded=0;orthogonalLoop=1;jettySize=auto;html=1;exitX=1;exitY=0.5;exitDx=0;exitDy=0;entryX=0;entryY=0.5;entryDx=0;entryDy=0;fontSize=18;fontColor=#000000;" parent="1" source="YQ1TIbrVVNOytPRjxOW0-91" target="YQ1TIbrVVNOytPRjxOW0-84" edge="1">
                    <mxGeometry relative="1" as="geometry"/>
                </mxCell>
                <mxCell id="YQ1TIbrVVNOytPRjxOW0-91" value="&lt;font color=&quot;#ffffff&quot;&gt;Linkerd proxy&lt;/font&gt;" style="rounded=1;whiteSpace=wrap;html=1;fontSize=18;fillColor=#B3B3B3;" parent="1" vertex="1">
                    <mxGeometry x="545.5" y="1640" width="156" height="85" as="geometry"/>
                </mxCell>
                <mxCell id="YQ1TIbrVVNOytPRjxOW0-92" style="edgeStyle=orthogonalEdgeStyle;rounded=0;orthogonalLoop=1;jettySize=auto;html=1;exitX=0;exitY=0.5;exitDx=0;exitDy=0;entryX=1;entryY=0.5;entryDx=0;entryDy=0;fontSize=18;fontColor=#B3B3B3;" parent="1" source="YQ1TIbrVVNOytPRjxOW0-94" target="YQ1TIbrVVNOytPRjxOW0-88" edge="1">
                    <mxGeometry relative="1" as="geometry"/>
                </mxCell>
                <mxCell id="YQ1TIbrVVNOytPRjxOW0-93" style="edgeStyle=orthogonalEdgeStyle;rounded=0;orthogonalLoop=1;jettySize=auto;html=1;exitX=1;exitY=0.5;exitDx=0;exitDy=0;entryX=0;entryY=0.5;entryDx=0;entryDy=0;fontSize=18;fontColor=#000000;" parent="1" source="YQ1TIbrVVNOytPRjxOW0-94" target="YQ1TIbrVVNOytPRjxOW0-84" edge="1">
                    <mxGeometry relative="1" as="geometry"/>
                </mxCell>
                <mxCell id="YQ1TIbrVVNOytPRjxOW0-94" value="&lt;span style=&quot;color: rgb(255, 255, 255);&quot;&gt;Linkerd proxy&lt;/span&gt;" style="rounded=1;whiteSpace=wrap;html=1;fontSize=18;fillColor=#B3B3B3;" parent="1" vertex="1">
                    <mxGeometry x="545.5" y="1795" width="156" height="85" as="geometry"/>
                </mxCell>
                <mxCell id="YQ1TIbrVVNOytPRjxOW0-95" value="&lt;font color=&quot;#ffffff&quot;&gt;Identity&lt;/font&gt;" style="rounded=1;whiteSpace=wrap;html=1;fontSize=18;fillColor=#B3B3B3;" parent="1" vertex="1">
                    <mxGeometry x="877.5" y="1620" width="156" height="85" as="geometry"/>
                </mxCell>
                <mxCell id="YQ1TIbrVVNOytPRjxOW0-96" value="&lt;font color=&quot;#ffffff&quot;&gt;Destination&lt;/font&gt;" style="rounded=1;whiteSpace=wrap;html=1;fontSize=18;fillColor=#B3B3B3;" parent="1" vertex="1">
                    <mxGeometry x="877.5" y="1720" width="156" height="85" as="geometry"/>
                </mxCell>
                <mxCell id="YQ1TIbrVVNOytPRjxOW0-97" value="&lt;font color=&quot;#ffffff&quot;&gt;Proxy injector&lt;/font&gt;" style="rounded=1;whiteSpace=wrap;html=1;fontSize=18;fillColor=#B3B3B3;" parent="1" vertex="1">
                    <mxGeometry x="877.5" y="1820" width="156" height="85" as="geometry"/>
                </mxCell>
                <mxCell id="YQ1TIbrVVNOytPRjxOW0-99" value="&lt;font color=&quot;#000000&quot;&gt;&lt;br&gt;&lt;br&gt;&lt;br&gt;&lt;br&gt;&lt;br&gt;&lt;br&gt;&lt;br&gt;&lt;br&gt;&lt;br&gt;&lt;br&gt;&lt;br&gt;&lt;div style=&quot;text-align: right;&quot;&gt;&lt;span style=&quot;background-color: initial;&quot;&gt;&lt;br&gt;&lt;/span&gt;&lt;/div&gt;&lt;div style=&quot;text-align: right;&quot;&gt;&lt;span style=&quot;background-color: initial;&quot;&gt;&lt;br&gt;&lt;/span&gt;&lt;/div&gt;&lt;div style=&quot;text-align: right;&quot;&gt;&lt;span style=&quot;background-color: initial;&quot;&gt;&lt;br&gt;&lt;/span&gt;&lt;/div&gt;&lt;div style=&quot;text-align: right;&quot;&gt;&lt;span style=&quot;background-color: initial;&quot;&gt;istiod&lt;/span&gt;&lt;/div&gt;&lt;/font&gt;" style="rounded=1;whiteSpace=wrap;html=1;labelBackgroundColor=none;strokeColor=#000000;fontSize=18;fontColor=#B3B3B3;fillColor=none;dashed=1;" parent="1" vertex="1">
                    <mxGeometry x="979.5" y="1100" width="200" height="340" as="geometry"/>
                </mxCell>
                <mxCell id="YQ1TIbrVVNOytPRjxOW0-100" value="&lt;font color=&quot;#ffffff&quot;&gt;Pilot&lt;/font&gt;" style="rounded=1;whiteSpace=wrap;html=1;fontSize=18;fillColor=#B3B3B3;" parent="1" vertex="1">
                    <mxGeometry x="1001.5" y="1114" width="156" height="85" as="geometry"/>
                </mxCell>
                <mxCell id="YQ1TIbrVVNOytPRjxOW0-101" value="&lt;font color=&quot;#ffffff&quot;&gt;Citadel&lt;/font&gt;" style="rounded=1;whiteSpace=wrap;html=1;fontSize=18;fillColor=#B3B3B3;" parent="1" vertex="1">
                    <mxGeometry x="1001.5" y="1220" width="156" height="85" as="geometry"/>
                </mxCell>
                <mxCell id="YQ1TIbrVVNOytPRjxOW0-102" value="&lt;font color=&quot;#ffffff&quot;&gt;Galley&lt;/font&gt;" style="rounded=1;whiteSpace=wrap;html=1;fontSize=18;fillColor=#B3B3B3;" parent="1" vertex="1">
                    <mxGeometry x="1001.5" y="1320" width="156" height="85" as="geometry"/>
                </mxCell>
                <mxCell id="YQ1TIbrVVNOytPRjxOW0-103" value="&lt;font color=&quot;#000000&quot;&gt;&lt;br&gt;&lt;br&gt;&lt;br&gt;&lt;br&gt;&lt;br&gt;&lt;br&gt;&lt;br&gt;&lt;br&gt;&lt;br&gt;&lt;br&gt;&lt;br&gt;&lt;div style=&quot;text-align: right;&quot;&gt;&lt;span style=&quot;background-color: initial;&quot;&gt;&lt;br&gt;&lt;/span&gt;&lt;/div&gt;&lt;div style=&quot;text-align: right;&quot;&gt;&lt;span style=&quot;background-color: initial;&quot;&gt;&lt;br&gt;&lt;/span&gt;&lt;/div&gt;&lt;div style=&quot;text-align: right;&quot;&gt;&lt;span style=&quot;background-color: initial;&quot;&gt;&lt;br&gt;&lt;/span&gt;&lt;/div&gt;&lt;div style=&quot;text-align: right;&quot;&gt;&lt;span style=&quot;background-color: initial;&quot;&gt;Control plane&lt;/span&gt;&lt;/div&gt;&lt;/font&gt;" style="rounded=1;whiteSpace=wrap;html=1;labelBackgroundColor=none;strokeColor=#000000;fontSize=18;fontColor=#B3B3B3;fillColor=none;dashed=1;" parent="1" vertex="1">
                    <mxGeometry x="658.5" y="2130" width="440" height="340" as="geometry"/>
                </mxCell>
                <mxCell id="YQ1TIbrVVNOytPRjxOW0-104" value="&lt;span style=&quot;text-align: right; color: rgb(0, 0, 0); background-color: initial;&quot;&gt;&lt;br&gt;&lt;br&gt;&lt;br&gt;&lt;br&gt;&lt;br&gt;&lt;br&gt;&lt;br&gt;&lt;br&gt;&lt;br&gt;&lt;br&gt;&lt;br&gt;&lt;br&gt;&lt;br&gt;&lt;br&gt;Data plane&lt;/span&gt;&lt;font color=&quot;#000000&quot;&gt;&lt;br&gt;&lt;/font&gt;" style="rounded=1;whiteSpace=wrap;html=1;labelBackgroundColor=none;strokeColor=#000000;fontSize=18;fontColor=#B3B3B3;fillColor=none;dashed=1;" parent="1" vertex="1">
                    <mxGeometry x="318.5" y="2130" width="208" height="332.5" as="geometry"/>
                </mxCell>
                <mxCell id="YQ1TIbrVVNOytPRjxOW0-105" style="edgeStyle=orthogonalEdgeStyle;rounded=0;orthogonalLoop=1;jettySize=auto;html=1;exitX=1;exitY=0.5;exitDx=0;exitDy=0;entryX=0;entryY=0.5;entryDx=0;entryDy=0;fontSize=18;fontColor=#B3B3B3;" parent="1" source="YQ1TIbrVVNOytPRjxOW0-106" target="YQ1TIbrVVNOytPRjxOW0-110" edge="1">
                    <mxGeometry relative="1" as="geometry"/>
                </mxCell>
                <mxCell id="YQ1TIbrVVNOytPRjxOW0-106" value="&lt;font color=&quot;#ffffff&quot;&gt;Microservice A&lt;/font&gt;" style="rounded=1;whiteSpace=wrap;html=1;fontSize=18;fillColor=#1061B0;" parent="1" vertex="1">
                    <mxGeometry x="108.5" y="2170" width="156" height="85" as="geometry"/>
                </mxCell>
                <mxCell id="YQ1TIbrVVNOytPRjxOW0-107" value="&lt;font color=&quot;#ffffff&quot;&gt;Microservice B&lt;/font&gt;" style="rounded=1;whiteSpace=wrap;html=1;fontSize=18;fillColor=#1061B0;" parent="1" vertex="1">
                    <mxGeometry x="108.5" y="2325" width="156" height="85" as="geometry"/>
                </mxCell>
                <mxCell id="YQ1TIbrVVNOytPRjxOW0-108" style="edgeStyle=orthogonalEdgeStyle;rounded=0;orthogonalLoop=1;jettySize=auto;html=1;exitX=0.5;exitY=1;exitDx=0;exitDy=0;entryX=0.5;entryY=0;entryDx=0;entryDy=0;fontSize=18;fontColor=#B3B3B3;startArrow=classic;startFill=1;" parent="1" source="YQ1TIbrVVNOytPRjxOW0-110" target="YQ1TIbrVVNOytPRjxOW0-113" edge="1">
                    <mxGeometry relative="1" as="geometry"/>
                </mxCell>
                <mxCell id="YQ1TIbrVVNOytPRjxOW0-126" style="edgeStyle=orthogonalEdgeStyle;rounded=0;orthogonalLoop=1;jettySize=auto;html=1;exitX=1;exitY=0.5;exitDx=0;exitDy=0;entryX=0;entryY=0.5;entryDx=0;entryDy=0;fontSize=18;fontColor=#000000;" parent="1" source="YQ1TIbrVVNOytPRjxOW0-110" target="YQ1TIbrVVNOytPRjxOW0-116" edge="1">
                    <mxGeometry relative="1" as="geometry"/>
                </mxCell>
                <mxCell id="YQ1TIbrVVNOytPRjxOW0-110" value="&lt;font color=&quot;#ffffff&quot;&gt;Different service proxy&lt;sup&gt;1&lt;/sup&gt;&lt;/font&gt;" style="rounded=1;whiteSpace=wrap;html=1;fontSize=18;fillColor=#B3B3B3;" parent="1" vertex="1">
                    <mxGeometry x="349.5" y="2170" width="156" height="85" as="geometry"/>
                </mxCell>
                <mxCell id="YQ1TIbrVVNOytPRjxOW0-111" style="edgeStyle=orthogonalEdgeStyle;rounded=0;orthogonalLoop=1;jettySize=auto;html=1;exitX=0;exitY=0.5;exitDx=0;exitDy=0;entryX=1;entryY=0.5;entryDx=0;entryDy=0;fontSize=18;fontColor=#B3B3B3;" parent="1" source="YQ1TIbrVVNOytPRjxOW0-113" target="YQ1TIbrVVNOytPRjxOW0-107" edge="1">
                    <mxGeometry relative="1" as="geometry"/>
                </mxCell>
                <mxCell id="YQ1TIbrVVNOytPRjxOW0-127" style="edgeStyle=orthogonalEdgeStyle;rounded=0;orthogonalLoop=1;jettySize=auto;html=1;exitX=1;exitY=0.5;exitDx=0;exitDy=0;entryX=0;entryY=0.5;entryDx=0;entryDy=0;fontSize=18;fontColor=#000000;" parent="1" source="YQ1TIbrVVNOytPRjxOW0-113" target="YQ1TIbrVVNOytPRjxOW0-125" edge="1">
                    <mxGeometry relative="1" as="geometry"/>
                </mxCell>
                <mxCell id="YQ1TIbrVVNOytPRjxOW0-113" value="&lt;span style=&quot;color: rgb(255, 255, 255);&quot;&gt;Different service proxy&lt;sup&gt;1&lt;/sup&gt;&lt;/span&gt;" style="rounded=1;whiteSpace=wrap;html=1;fontSize=18;fillColor=#B3B3B3;" parent="1" vertex="1">
                    <mxGeometry x="348.5" y="2325" width="156" height="85" as="geometry"/>
                </mxCell>
                <mxCell id="YQ1TIbrVVNOytPRjxOW0-132" style="edgeStyle=orthogonalEdgeStyle;rounded=0;orthogonalLoop=1;jettySize=auto;html=1;exitX=1;exitY=0.5;exitDx=0;exitDy=0;entryX=0;entryY=0.5;entryDx=0;entryDy=0;fontSize=18;fontColor=#000000;" parent="1" source="YQ1TIbrVVNOytPRjxOW0-116" target="YQ1TIbrVVNOytPRjxOW0-128" edge="1">
                    <mxGeometry relative="1" as="geometry"/>
                </mxCell>
                <mxCell id="YQ1TIbrVVNOytPRjxOW0-116" value="&lt;font color=&quot;#ffffff&quot;&gt;Consul client&lt;/font&gt;" style="rounded=1;whiteSpace=wrap;html=1;fontSize=18;fillColor=#B3B3B3;" parent="1" vertex="1">
                    <mxGeometry x="680.5" y="2170" width="156" height="85" as="geometry"/>
                </mxCell>
                <mxCell id="YQ1TIbrVVNOytPRjxOW0-118" value="1... Envoy, Built-in or any other service proxy" style="text;html=1;strokeColor=none;fillColor=none;align=center;verticalAlign=middle;whiteSpace=wrap;rounded=0;dashed=1;labelBackgroundColor=none;fontSize=18;fontColor=#000000;" parent="1" vertex="1">
                    <mxGeometry x="40" y="2520" width="320" height="30" as="geometry"/>
                </mxCell>
                <mxCell id="YQ1TIbrVVNOytPRjxOW0-120" value="&lt;font color=&quot;#ffffff&quot;&gt;Linkerd init&lt;/font&gt;" style="rounded=1;whiteSpace=wrap;html=1;fontSize=18;fillColor=#B3B3B3;" parent="1" vertex="1">
                    <mxGeometry x="119.5" y="1640" width="156" height="85" as="geometry"/>
                </mxCell>
                <mxCell id="YQ1TIbrVVNOytPRjxOW0-122" value="&lt;font color=&quot;#ffffff&quot;&gt;Linkerd init&lt;/font&gt;" style="rounded=1;whiteSpace=wrap;html=1;fontSize=18;fillColor=#B3B3B3;" parent="1" vertex="1">
                    <mxGeometry x="119.5" y="1795" width="156" height="85" as="geometry"/>
                </mxCell>
                <mxCell id="YQ1TIbrVVNOytPRjxOW0-133" style="edgeStyle=orthogonalEdgeStyle;rounded=0;orthogonalLoop=1;jettySize=auto;html=1;exitX=1;exitY=0.5;exitDx=0;exitDy=0;entryX=0;entryY=0.5;entryDx=0;entryDy=0;fontSize=18;fontColor=#000000;" parent="1" source="YQ1TIbrVVNOytPRjxOW0-125" target="YQ1TIbrVVNOytPRjxOW0-129" edge="1">
                    <mxGeometry relative="1" as="geometry"/>
                </mxCell>
                <mxCell id="YQ1TIbrVVNOytPRjxOW0-125" value="&lt;font color=&quot;#ffffff&quot;&gt;Consul client&lt;/font&gt;" style="rounded=1;whiteSpace=wrap;html=1;fontSize=18;fillColor=#B3B3B3;" parent="1" vertex="1">
                    <mxGeometry x="682.5" y="2325" width="156" height="85" as="geometry"/>
                </mxCell>
                <mxCell id="YQ1TIbrVVNOytPRjxOW0-130" style="edgeStyle=orthogonalEdgeStyle;rounded=0;orthogonalLoop=1;jettySize=auto;html=1;exitX=0.25;exitY=1;exitDx=0;exitDy=0;entryX=0.25;entryY=0;entryDx=0;entryDy=0;fontSize=18;fontColor=#000000;" parent="1" source="YQ1TIbrVVNOytPRjxOW0-128" target="YQ1TIbrVVNOytPRjxOW0-129" edge="1">
                    <mxGeometry relative="1" as="geometry"/>
                </mxCell>
                <mxCell id="YQ1TIbrVVNOytPRjxOW0-128" value="&lt;font color=&quot;#ffffff&quot;&gt;Consul server&lt;/font&gt;" style="rounded=1;whiteSpace=wrap;html=1;fontSize=18;fillColor=#B3B3B3;" parent="1" vertex="1">
                    <mxGeometry x="926.5" y="2170" width="156" height="85" as="geometry"/>
                </mxCell>
                <mxCell id="YQ1TIbrVVNOytPRjxOW0-131" style="edgeStyle=orthogonalEdgeStyle;rounded=0;orthogonalLoop=1;jettySize=auto;html=1;exitX=0.75;exitY=0;exitDx=0;exitDy=0;entryX=0.75;entryY=1;entryDx=0;entryDy=0;fontSize=18;fontColor=#000000;" parent="1" source="YQ1TIbrVVNOytPRjxOW0-129" target="YQ1TIbrVVNOytPRjxOW0-128" edge="1">
                    <mxGeometry relative="1" as="geometry"/>
                </mxCell>
                <mxCell id="YQ1TIbrVVNOytPRjxOW0-129" value="&lt;font color=&quot;#ffffff&quot;&gt;Consul server&lt;/font&gt;" style="rounded=1;whiteSpace=wrap;html=1;fontSize=18;fillColor=#B3B3B3;" parent="1" vertex="1">
                    <mxGeometry x="926.5" y="2325" width="156" height="85" as="geometry"/>
                </mxCell>
                <mxCell id="2" value="&lt;b&gt;&lt;font style=&quot;font-size: 18px&quot;&gt;Microservices + Kuma (Kubernetes mode)&lt;br&gt;&lt;/font&gt;&lt;/b&gt;" style="text;html=1;strokeColor=none;fillColor=none;align=center;verticalAlign=middle;whiteSpace=wrap;rounded=0;" parent="1" vertex="1">
                    <mxGeometry x="40" y="2640" width="230" height="70" as="geometry"/>
                </mxCell>
                <mxCell id="3" value="&lt;b&gt;&lt;font style=&quot;font-size: 18px&quot;&gt;Microservices + Traefik&lt;br&gt;&lt;/font&gt;&lt;/b&gt;" style="text;html=1;strokeColor=none;fillColor=none;align=center;verticalAlign=middle;whiteSpace=wrap;rounded=0;" parent="1" vertex="1">
                    <mxGeometry x="43" y="3110" width="140" height="70" as="geometry"/>
                </mxCell>
                <mxCell id="4" value="&lt;font color=&quot;#000000&quot;&gt;&lt;br&gt;&lt;br&gt;&lt;br&gt;&lt;br&gt;&lt;br&gt;&lt;br&gt;&lt;br&gt;&lt;br&gt;&lt;br&gt;&lt;br&gt;&lt;br&gt;&lt;div style=&quot;text-align: right;&quot;&gt;&lt;span style=&quot;background-color: initial;&quot;&gt;&lt;br&gt;&lt;/span&gt;&lt;/div&gt;&lt;div style=&quot;text-align: right;&quot;&gt;&lt;span style=&quot;background-color: initial;&quot;&gt;&lt;br&gt;&lt;/span&gt;&lt;/div&gt;&lt;div style=&quot;text-align: right;&quot;&gt;&lt;span style=&quot;background-color: initial;&quot;&gt;&lt;br&gt;&lt;/span&gt;&lt;/div&gt;&lt;div style=&quot;text-align: right;&quot;&gt;&lt;span style=&quot;background-color: initial;&quot;&gt;Control plane&lt;/span&gt;&lt;/div&gt;&lt;/font&gt;" style="rounded=1;whiteSpace=wrap;html=1;labelBackgroundColor=none;strokeColor=#000000;fontSize=18;fontColor=#B3B3B3;fillColor=none;dashed=1;" parent="1" vertex="1">
                    <mxGeometry x="660" y="2720" width="210" height="340" as="geometry"/>
                </mxCell>
                <mxCell id="5" value="&lt;span style=&quot;text-align: right; color: rgb(0, 0, 0); background-color: initial;&quot;&gt;&lt;br&gt;&lt;br&gt;&lt;br&gt;&lt;br&gt;&lt;br&gt;&lt;br&gt;&lt;br&gt;&lt;br&gt;&lt;br&gt;&lt;br&gt;&lt;br&gt;&lt;br&gt;&lt;br&gt;&lt;br&gt;Data plane&lt;/span&gt;&lt;font color=&quot;#000000&quot;&gt;&lt;br&gt;&lt;/font&gt;" style="rounded=1;whiteSpace=wrap;html=1;labelBackgroundColor=none;strokeColor=#000000;fontSize=18;fontColor=#B3B3B3;fillColor=none;dashed=1;" parent="1" vertex="1">
                    <mxGeometry x="320" y="2720" width="208" height="332.5" as="geometry"/>
                </mxCell>
                <mxCell id="6" style="edgeStyle=orthogonalEdgeStyle;rounded=0;orthogonalLoop=1;jettySize=auto;html=1;exitX=1;exitY=0.5;exitDx=0;exitDy=0;entryX=0;entryY=0.5;entryDx=0;entryDy=0;fontSize=18;fontColor=#B3B3B3;" parent="1" source="7" target="11" edge="1">
                    <mxGeometry relative="1" as="geometry"/>
                </mxCell>
                <mxCell id="7" value="&lt;font color=&quot;#ffffff&quot;&gt;Microservice A&lt;/font&gt;" style="rounded=1;whiteSpace=wrap;html=1;fontSize=18;fillColor=#1061B0;" parent="1" vertex="1">
                    <mxGeometry x="110" y="2760" width="156" height="85" as="geometry"/>
                </mxCell>
                <mxCell id="8" value="&lt;font color=&quot;#ffffff&quot;&gt;Microservice B&lt;/font&gt;" style="rounded=1;whiteSpace=wrap;html=1;fontSize=18;fillColor=#1061B0;" parent="1" vertex="1">
                    <mxGeometry x="110" y="2915" width="156" height="85" as="geometry"/>
                </mxCell>
                <mxCell id="9" style="edgeStyle=orthogonalEdgeStyle;rounded=0;orthogonalLoop=1;jettySize=auto;html=1;exitX=0.5;exitY=1;exitDx=0;exitDy=0;entryX=0.5;entryY=0;entryDx=0;entryDy=0;fontSize=18;fontColor=#B3B3B3;startArrow=classic;startFill=1;" parent="1" source="11" target="14" edge="1">
                    <mxGeometry relative="1" as="geometry"/>
                </mxCell>
                <mxCell id="10" style="edgeStyle=orthogonalEdgeStyle;rounded=0;orthogonalLoop=1;jettySize=auto;html=1;exitX=1;exitY=0.5;exitDx=0;exitDy=0;entryX=0;entryY=0.5;entryDx=0;entryDy=0;fontSize=18;fontColor=#000000;" parent="1" source="11" target="18" edge="1">
                    <mxGeometry relative="1" as="geometry">
                        <mxPoint x="682" y="2802.4999999999995" as="targetPoint"/>
                    </mxGeometry>
                </mxCell>
                <mxCell id="11" value="&lt;font color=&quot;#ffffff&quot;&gt;Kuma data plane&lt;br&gt;(Envoy)&lt;br&gt;&lt;/font&gt;" style="rounded=1;whiteSpace=wrap;html=1;fontSize=18;fillColor=#B3B3B3;" parent="1" vertex="1">
                    <mxGeometry x="351" y="2760" width="156" height="85" as="geometry"/>
                </mxCell>
                <mxCell id="12" style="edgeStyle=orthogonalEdgeStyle;rounded=0;orthogonalLoop=1;jettySize=auto;html=1;exitX=0;exitY=0.5;exitDx=0;exitDy=0;entryX=1;entryY=0.5;entryDx=0;entryDy=0;fontSize=18;fontColor=#B3B3B3;" parent="1" source="14" target="8" edge="1">
                    <mxGeometry relative="1" as="geometry"/>
                </mxCell>
                <mxCell id="13" style="edgeStyle=orthogonalEdgeStyle;rounded=0;orthogonalLoop=1;jettySize=auto;html=1;exitX=1;exitY=0.5;exitDx=0;exitDy=0;entryX=0;entryY=0.5;entryDx=0;entryDy=0;fontSize=18;fontColor=#000000;" parent="1" source="14" target="18" edge="1">
                    <mxGeometry relative="1" as="geometry"/>
                </mxCell>
                <mxCell id="14" value="&lt;font color=&quot;#ffffff&quot;&gt;Kuma data plane&lt;br&gt;(Envoy)&lt;br&gt;&lt;/font&gt;" style="rounded=1;whiteSpace=wrap;html=1;fontSize=18;fillColor=#B3B3B3;" parent="1" vertex="1">
                    <mxGeometry x="350" y="2915" width="156" height="85" as="geometry"/>
                </mxCell>
                <mxCell id="18" value="&lt;font color=&quot;#ffffff&quot;&gt;Kuma control plane&lt;/font&gt;" style="rounded=1;whiteSpace=wrap;html=1;fontSize=18;fillColor=#B3B3B3;" parent="1" vertex="1">
                    <mxGeometry x="687" y="2843.75" width="156" height="85" as="geometry"/>
                </mxCell>
                <UserObject label="https://kuma.io/docs/2.0.x/explore/overview/#kubernetes-mode" link="https://linkerd.io/2.12/reference/architecture/" id="23">
                    <mxCell style="text;whiteSpace=wrap;html=1;fontSize=18;fontColor=#000000;" parent="1" vertex="1">
                        <mxGeometry x="287" y="2650" width="533" height="50" as="geometry"/>
                    </mxCell>
                </UserObject>
                <mxCell id="24" value="&lt;b&gt;&lt;font style=&quot;font-size: 18px&quot;&gt;Microservices + Kuma (Universal mod)&lt;br&gt;&lt;/font&gt;&lt;/b&gt;" style="text;html=1;strokeColor=none;fillColor=none;align=center;verticalAlign=middle;whiteSpace=wrap;rounded=0;" parent="1" vertex="1">
                    <mxGeometry x="1000" y="2640" width="230" height="70" as="geometry"/>
                </mxCell>
                <UserObject label="https://kuma.io/docs/2.0.x/explore/overview/#universal-mode" link="https://linkerd.io/2.12/reference/architecture/" id="25">
                    <mxCell style="text;whiteSpace=wrap;html=1;fontSize=18;fontColor=#000000;" parent="1" vertex="1">
                        <mxGeometry x="1247" y="2650" width="523" height="50" as="geometry"/>
                    </mxCell>
                </UserObject>
                <mxCell id="26" value="&lt;font color=&quot;#000000&quot;&gt;&lt;br&gt;&lt;br&gt;&lt;br&gt;&lt;br&gt;&lt;br&gt;&lt;br&gt;&lt;br&gt;&lt;br&gt;&lt;br&gt;&lt;br&gt;&lt;br&gt;&lt;div style=&quot;text-align: right;&quot;&gt;&lt;span style=&quot;background-color: initial;&quot;&gt;&lt;br&gt;&lt;/span&gt;&lt;/div&gt;&lt;div style=&quot;text-align: right;&quot;&gt;&lt;span style=&quot;background-color: initial;&quot;&gt;&lt;br&gt;&lt;/span&gt;&lt;/div&gt;&lt;div style=&quot;text-align: right;&quot;&gt;&lt;span style=&quot;background-color: initial;&quot;&gt;&lt;br&gt;&lt;/span&gt;&lt;/div&gt;&lt;div style=&quot;text-align: right;&quot;&gt;&lt;span style=&quot;background-color: initial;&quot;&gt;Control plane&lt;/span&gt;&lt;/div&gt;&lt;/font&gt;" style="rounded=1;whiteSpace=wrap;html=1;labelBackgroundColor=none;strokeColor=#000000;fontSize=18;fontColor=#B3B3B3;fillColor=none;dashed=1;" parent="1" vertex="1">
                    <mxGeometry x="1550" y="2730" width="210" height="340" as="geometry"/>
                </mxCell>
                <mxCell id="27" value="&lt;span style=&quot;text-align: right; color: rgb(0, 0, 0); background-color: initial;&quot;&gt;&lt;br&gt;&lt;br&gt;&lt;br&gt;&lt;br&gt;&lt;br&gt;&lt;br&gt;&lt;br&gt;&lt;br&gt;&lt;br&gt;&lt;br&gt;&lt;br&gt;&lt;br&gt;&lt;br&gt;&lt;br&gt;Data plane&lt;/span&gt;&lt;font color=&quot;#000000&quot;&gt;&lt;br&gt;&lt;/font&gt;" style="rounded=1;whiteSpace=wrap;html=1;labelBackgroundColor=none;strokeColor=#000000;fontSize=18;fontColor=#B3B3B3;fillColor=none;dashed=1;" parent="1" vertex="1">
                    <mxGeometry x="1210" y="2730" width="208" height="332.5" as="geometry"/>
                </mxCell>
                <mxCell id="28" style="edgeStyle=orthogonalEdgeStyle;rounded=0;orthogonalLoop=1;jettySize=auto;html=1;exitX=1;exitY=0.5;exitDx=0;exitDy=0;entryX=0;entryY=0.5;entryDx=0;entryDy=0;fontSize=18;fontColor=#B3B3B3;" parent="1" source="29" target="33" edge="1">
                    <mxGeometry relative="1" as="geometry"/>
                </mxCell>
                <mxCell id="29" value="&lt;font color=&quot;#ffffff&quot;&gt;Microservice A&lt;/font&gt;" style="rounded=1;whiteSpace=wrap;html=1;fontSize=18;fillColor=#1061B0;" parent="1" vertex="1">
                    <mxGeometry x="1000" y="2770" width="156" height="85" as="geometry"/>
                </mxCell>
                <mxCell id="30" value="&lt;font color=&quot;#ffffff&quot;&gt;Microservice B&lt;/font&gt;" style="rounded=1;whiteSpace=wrap;html=1;fontSize=18;fillColor=#1061B0;" parent="1" vertex="1">
                    <mxGeometry x="1000" y="2925" width="156" height="85" as="geometry"/>
                </mxCell>
                <mxCell id="31" style="edgeStyle=orthogonalEdgeStyle;rounded=0;orthogonalLoop=1;jettySize=auto;html=1;exitX=0.5;exitY=1;exitDx=0;exitDy=0;entryX=0.5;entryY=0;entryDx=0;entryDy=0;fontSize=18;fontColor=#B3B3B3;startArrow=classic;startFill=1;" parent="1" source="33" target="36" edge="1">
                    <mxGeometry relative="1" as="geometry"/>
                </mxCell>
                <mxCell id="32" style="edgeStyle=orthogonalEdgeStyle;rounded=0;orthogonalLoop=1;jettySize=auto;html=1;exitX=1;exitY=0.5;exitDx=0;exitDy=0;entryX=0;entryY=0.5;entryDx=0;entryDy=0;fontSize=18;fontColor=#000000;" parent="1" source="33" target="37" edge="1">
                    <mxGeometry relative="1" as="geometry">
                        <mxPoint x="1572" y="2812.4999999999995" as="targetPoint"/>
                    </mxGeometry>
                </mxCell>
                <mxCell id="33" value="&lt;font color=&quot;#ffffff&quot;&gt;Kuma data plane&lt;br&gt;(Envoy)&lt;br&gt;&lt;/font&gt;" style="rounded=1;whiteSpace=wrap;html=1;fontSize=18;fillColor=#B3B3B3;" parent="1" vertex="1">
                    <mxGeometry x="1241" y="2770" width="156" height="85" as="geometry"/>
                </mxCell>
                <mxCell id="34" style="edgeStyle=orthogonalEdgeStyle;rounded=0;orthogonalLoop=1;jettySize=auto;html=1;exitX=0;exitY=0.5;exitDx=0;exitDy=0;entryX=1;entryY=0.5;entryDx=0;entryDy=0;fontSize=18;fontColor=#B3B3B3;" parent="1" source="36" target="30" edge="1">
                    <mxGeometry relative="1" as="geometry"/>
                </mxCell>
                <mxCell id="35" style="edgeStyle=orthogonalEdgeStyle;rounded=0;orthogonalLoop=1;jettySize=auto;html=1;exitX=1;exitY=0.5;exitDx=0;exitDy=0;entryX=0;entryY=0.5;entryDx=0;entryDy=0;fontSize=18;fontColor=#000000;" parent="1" source="36" target="37" edge="1">
                    <mxGeometry relative="1" as="geometry"/>
                </mxCell>
                <mxCell id="36" value="&lt;font color=&quot;#ffffff&quot;&gt;Kuma data plane&lt;br&gt;(Envoy)&lt;br&gt;&lt;/font&gt;" style="rounded=1;whiteSpace=wrap;html=1;fontSize=18;fillColor=#B3B3B3;" parent="1" vertex="1">
                    <mxGeometry x="1240" y="2925" width="156" height="85" as="geometry"/>
                </mxCell>
                <mxCell id="39" style="edgeStyle=none;html=1;exitX=1;exitY=0.5;exitDx=0;exitDy=0;entryX=0;entryY=0.5;entryDx=0;entryDy=0;startArrow=none;startFill=0;endArrow=none;endFill=0;" parent="1" source="37" target="38" edge="1">
                    <mxGeometry relative="1" as="geometry"/>
                </mxCell>
                <mxCell id="37" value="&lt;font color=&quot;#ffffff&quot;&gt;Kuma control plane&lt;/font&gt;" style="rounded=1;whiteSpace=wrap;html=1;fontSize=18;fillColor=#B3B3B3;" parent="1" vertex="1">
                    <mxGeometry x="1577" y="2853.75" width="156" height="85" as="geometry"/>
                </mxCell>
                <mxCell id="38" value="&lt;font color=&quot;#ffffff&quot;&gt;PostgreSQL&lt;br&gt;&lt;/font&gt;" style="rounded=1;whiteSpace=wrap;html=1;fontSize=18;fillColor=#FF99FF;" parent="1" vertex="1">
                    <mxGeometry x="1840" y="2855" width="156" height="85" as="geometry"/>
                </mxCell>
                <UserObject label="&lt;font style=&quot;font-size: 18px&quot;&gt;https://doc.traefik.io/traefik-mesh/&lt;/font&gt;" link="https://doc.traefik.io/traefik-mesh/" id="40">
                    <mxCell style="text;whiteSpace=wrap;html=1;" parent="1" vertex="1">
                        <mxGeometry x="220" y="3120" width="290" height="30" as="geometry"/>
                    </mxCell>
                </UserObject>
                <mxCell id="41" value="&lt;font color=&quot;#000000&quot;&gt;&lt;br&gt;&lt;br&gt;&lt;br&gt;&lt;br&gt;&lt;br&gt;&lt;br&gt;&lt;br&gt;&lt;br&gt;&lt;br&gt;&lt;br&gt;&lt;br&gt;&lt;div style=&quot;text-align: right&quot;&gt;&lt;span&gt;&lt;br&gt;&lt;/span&gt;&lt;/div&gt;&lt;div style=&quot;text-align: right&quot;&gt;&lt;span&gt;&lt;br&gt;&lt;/span&gt;&lt;/div&gt;&lt;div style=&quot;text-align: right&quot;&gt;&lt;span&gt;&lt;br&gt;&lt;/span&gt;&lt;/div&gt;&lt;div style=&quot;text-align: right&quot;&gt;&lt;span&gt;C plane&lt;/span&gt;&lt;/div&gt;&lt;/font&gt;" style="rounded=1;whiteSpace=wrap;html=1;labelBackgroundColor=none;strokeColor=#000000;fontSize=18;fontColor=#B3B3B3;fillColor=none;dashed=1;" parent="1" vertex="1">
                    <mxGeometry x="411.5" y="3220" width="210" height="340" as="geometry"/>
                </mxCell>
                <mxCell id="43" style="edgeStyle=orthogonalEdgeStyle;rounded=0;orthogonalLoop=1;jettySize=auto;html=1;exitX=1;exitY=0.5;exitDx=0;exitDy=0;entryX=0;entryY=0.25;entryDx=0;entryDy=0;fontSize=18;fontColor=#B3B3B3;" parent="1" source="44" target="41" edge="1">
                    <mxGeometry relative="1" as="geometry">
                        <mxPoint x="397.5" y="3302.5" as="targetPoint"/>
                    </mxGeometry>
                </mxCell>
                <mxCell id="44" value="&lt;font color=&quot;#ffffff&quot;&gt;Microservice A&lt;/font&gt;" style="rounded=1;whiteSpace=wrap;html=1;fontSize=18;fillColor=#1061B0;" parent="1" vertex="1">
                    <mxGeometry x="108.5" y="3262" width="156" height="85" as="geometry"/>
                </mxCell>
                <mxCell id="45" value="&lt;font color=&quot;#ffffff&quot;&gt;Microservice B&lt;/font&gt;" style="rounded=1;whiteSpace=wrap;html=1;fontSize=18;fillColor=#1061B0;" parent="1" vertex="1">
                    <mxGeometry x="108.5" y="3432" width="156" height="85" as="geometry"/>
                </mxCell>
                <mxCell id="52" value="&lt;font color=&quot;#ffffff&quot;&gt;Traefik mesh controller&lt;/font&gt;" style="rounded=1;whiteSpace=wrap;html=1;fontSize=18;fillColor=#B3B3B3;" parent="1" vertex="1">
                    <mxGeometry x="438.5" y="3270" width="156" height="85" as="geometry"/>
                </mxCell>
                <mxCell id="55" value="&lt;font color=&quot;#ffffff&quot;&gt;Traefik mesh &lt;br&gt;proxy&lt;/font&gt;" style="rounded=1;whiteSpace=wrap;html=1;fontSize=18;fillColor=#B3B3B3;" parent="1" vertex="1">
                    <mxGeometry x="438.5" y="3400" width="156" height="85" as="geometry"/>
                </mxCell>
                <mxCell id="57" style="edgeStyle=orthogonalEdgeStyle;rounded=0;orthogonalLoop=1;jettySize=auto;html=1;exitX=0;exitY=0.75;exitDx=0;exitDy=0;entryX=1;entryY=0.5;entryDx=0;entryDy=0;fontSize=18;fontColor=#B3B3B3;" parent="1" source="41" target="45" edge="1">
                    <mxGeometry relative="1" as="geometry">
                        <mxPoint x="274.5" y="3334.5" as="sourcePoint"/>
                        <mxPoint x="421.5" y="3335" as="targetPoint"/>
                    </mxGeometry>
                </mxCell>
            </root>
        </mxGraphModel>
    </diagram>
</mxfile>